<svg width="188" height="36" viewBox="0 0 188 36" fill="none" xmlns="http://www.w3.org/2000/svg">
<path d="M32.3684 28.7812C34.9548 25.3136 36.2075 21.0288 35.897 16.7116C35.5865 12.3944 33.7336 8.33372 30.6777 5.27319C27.6217 2.21265 23.5673 0.357144 19.2568 0.0464648C14.9463 -0.264214 10.6684 0.990732 7.2064 3.58148L9.04523 5.42138C12.0134 3.31056 15.6319 2.32034 19.2593 2.62619C22.8868 2.93204 26.289 4.51422 28.8631 7.09234C31.4371 9.67046 33.0168 13.078 33.3222 16.7112C33.6276 20.3443 32.6389 23.9685 30.5314 26.9413L29.6093 26.0177L27.8194 31.4993L33.2851 29.6994L32.3684 28.7812Z" fill="#FF7800"/>
<path d="M26.899 30.5776C23.9329 32.7049 20.309 33.7084 16.673 33.4092C13.0371 33.1101 9.62524 31.5277 7.04546 28.9441C4.46568 26.3605 2.88553 22.9434 2.58654 19.3018C2.28754 15.6601 3.28914 12.0305 5.41287 9.05945L6.33862 9.97758L8.12853 4.49599L2.65916 6.2996L3.57586 7.21773C0.989177 10.6852 -0.2638 14.9698 0.0463919 19.2871C0.356583 23.6043 2.20918 27.6651 5.26491 30.7259C8.32064 33.7867 12.375 35.6425 16.6854 35.9534C20.9958 36.2644 25.2739 35.0098 28.7361 32.4193L26.899 30.5776Z" fill="#FF0000"/>
<path d="M28.6835 25.0924C30.3158 22.6194 31.045 19.6575 30.7477 16.708C30.4504 13.7585 29.1449 11.0023 27.0521 8.906C24.9592 6.80966 22.2076 5.50181 19.2627 5.20376C16.3178 4.9057 13.3606 5.63574 10.8913 7.27035L12.7537 9.13747C14.7153 7.98053 17.0051 7.50891 19.2634 7.79667C21.5217 8.08443 23.6206 9.11527 25.2306 10.7273C26.8405 12.3394 27.8703 14.4413 28.1582 16.7031C28.4461 18.9649 27.9758 21.2584 26.8211 23.2234L25.8791 22.2799L24.1236 27.796L29.6093 26.0141L28.6835 25.0924Z" fill="#FF7800"/>
<path d="M23.187 26.8633C21.225 28.0197 18.9351 28.4908 16.6769 28.2024C14.4187 27.9141 12.32 26.8827 10.7105 25.2702C9.10097 23.6578 8.07174 21.5555 7.78443 19.2937C7.49712 17.0318 7.968 14.7385 9.12313 12.7737L10.0652 13.7173L11.8189 8.20119L6.33862 9.97758L7.26256 10.9048C5.63052 13.3779 4.90163 16.3399 5.19921 19.2894C5.4968 22.2389 6.80259 24.9948 8.89564 27.091C10.9887 29.1871 13.7405 30.4947 16.6854 30.7924C19.6303 31.0902 22.5875 30.3598 25.0566 28.725L23.187 26.8633Z" fill="#FF0000"/>
<path d="M58.3565 12.4072C59.7962 12.4072 60.9876 12.7423 61.9309 13.4124C62.8742 14.0826 63.3458 15.0987 63.3458 16.4608C63.3458 17.8229 62.8941 18.8106 61.9907 19.4239C61.0873 20.0372 59.8759 20.3432 58.3565 20.342H53.6082V24.4282H50.0411V12.4072H58.3565ZM58.1844 17.5985C59.2497 17.5985 59.7823 17.2192 59.7823 16.4608C59.7823 15.7023 59.2503 15.3243 58.1862 15.3267H53.6082V17.5985H58.1844Z" fill="#002864"/>
<path d="M66.0542 23.3904C64.8924 22.5593 64.3114 21.4059 64.3114 19.9301C64.3114 18.4543 64.8942 17.3009 66.0597 16.4699C67.2264 15.6388 68.7868 15.2239 70.741 15.2251C72.6951 15.2263 74.2556 15.6412 75.4223 16.4699C76.5878 17.2985 77.1705 18.4519 77.1705 19.9301C77.1705 21.4083 76.5878 22.5617 75.4223 23.3904C74.2556 24.2202 72.6951 24.6351 70.741 24.6351C68.7868 24.6351 67.2246 24.2202 66.0542 23.3904ZM68.4891 18.4186C68.2406 18.5843 68.0368 18.8088 67.8959 19.0724C67.7549 19.3359 67.6811 19.6302 67.6811 19.9292C67.6811 20.2282 67.7549 20.5225 67.8959 20.786C68.0368 21.0496 68.2406 21.2741 68.4891 21.4398C69.0265 21.8535 69.7754 22.0597 70.7355 22.0585C71.6957 22.0573 72.4445 21.8511 72.982 21.4398C73.5182 21.0285 73.787 20.5253 73.7882 19.9301C73.7854 19.6317 73.7106 19.3385 73.5703 19.0753C73.4299 18.8121 73.2281 18.5868 72.982 18.4186C72.4433 18.0073 71.6945 17.8011 70.7355 17.7999C69.7766 17.7987 69.0277 18.0049 68.4891 18.4186Z" fill="#002864"/>
<path d="M90.8304 21.0279C90.648 22.1625 90.0133 23.0474 88.9263 23.6825C87.8393 24.3176 86.4794 24.6351 84.8465 24.6351C82.879 24.6351 81.3355 24.2256 80.2159 23.4067C79.0963 22.5877 78.5365 21.4289 78.5365 19.9301C78.5365 18.4301 79.0939 17.2707 80.2086 16.4517C81.3234 15.6328 82.841 15.2239 84.7613 15.2251C86.3459 15.2251 87.6817 15.5324 88.7687 16.1469C89.8557 16.7614 90.4843 17.6196 90.6546 18.7217L87.3447 18.9031C87.1175 18.5314 86.7743 18.2451 86.3683 18.0884C85.8579 17.8779 85.3095 17.7753 84.7577 17.7872C83.8881 17.7872 83.1961 17.9819 82.6815 18.3715C82.4421 18.5514 82.248 18.7851 82.1149 19.0537C81.9818 19.3223 81.9134 19.6185 81.9152 19.9183C81.9169 20.2182 81.9888 20.5135 82.125 20.7806C82.2613 21.0476 82.4581 21.279 82.6997 21.4561C83.225 21.8444 83.9394 22.0386 84.8428 22.0386C85.4281 22.0582 86.0104 21.9472 86.5476 21.7138C86.9509 21.545 87.2863 21.2461 87.5005 20.8646L90.8304 21.0279Z" fill="#002864"/>
<path d="M104.358 21.0279C104.176 22.1625 103.541 23.0474 102.454 23.6825C101.367 24.3176 100.006 24.6351 98.3704 24.6351C96.403 24.6351 94.8595 24.2256 93.7399 23.4067C92.6203 22.5877 92.0605 21.4289 92.0605 19.9301C92.0605 18.4301 92.6179 17.2707 93.7326 16.4517C94.8474 15.6328 96.3643 15.2239 98.2835 15.2251C99.8741 15.2251 101.212 15.5342 102.296 16.1523C103.381 16.7705 104.009 17.6287 104.182 18.7271L100.874 18.9085C100.646 18.5372 100.302 18.251 99.8958 18.0938C99.3848 17.8833 98.8359 17.7808 98.2835 17.7926C97.4163 17.7926 96.7249 17.9874 96.2091 18.3769C95.9696 18.5569 95.7756 18.7905 95.6425 19.0592C95.5094 19.3278 95.441 19.6239 95.4427 19.9238C95.4445 20.2237 95.5164 20.519 95.6526 20.786C95.7889 21.053 95.9857 21.2844 96.2272 21.4615C96.7526 21.8498 97.467 22.044 98.3704 22.044C98.9557 22.0636 99.538 21.9527 100.075 21.7192C100.482 21.543 100.818 21.2342 101.028 20.8428L104.358 21.0279Z" fill="#002864"/>
<path d="M113.358 15.4302H118.299V24.4282H115.038V17.818L110.907 24.4282H105.968V15.4302H109.229V22.0422L113.358 15.4302Z" fill="#002864"/>
<path d="M122.205 15.4302H132.169V24.4282H128.754V18.2463H125.13C125.118 18.4077 125.096 18.6364 125.061 18.9339C124.97 19.8158 124.895 20.4624 124.839 20.8736C124.761 21.379 124.649 21.8785 124.503 22.3688C124.339 22.9512 124.128 23.3668 123.878 23.6135C123.572 23.8947 123.217 24.1185 122.831 24.274C122.312 24.4814 121.756 24.5808 121.197 24.5661C120.732 24.5622 120.268 24.5277 119.808 24.4627V21.6648C120.083 21.6865 120.282 21.6992 120.407 21.6992C121.083 21.6992 121.505 21.418 121.676 20.8573C121.846 20.2966 121.996 18.9503 122.121 16.8219C122.155 16.2267 122.183 15.7628 122.205 15.4302Z" fill="#002864"/>
<path d="M140.774 18.1102C143.941 18.1102 145.523 19.1632 145.522 21.2692C145.521 23.3752 143.938 24.4282 140.774 24.4282H134.294V15.4302H137.705V18.1102H140.774ZM140.533 21.9914C141.597 21.9914 142.129 21.7392 142.129 21.2347C142.129 20.7303 141.597 20.4726 140.533 20.4618H137.705V21.9914H140.533Z" fill="#002864"/>
<path d="M154.01 15.8257C155.713 15.8257 157.102 16.2352 158.177 17.0541C158.682 17.4148 159.092 17.8931 159.371 18.4479C159.65 19.0028 159.791 19.6173 159.78 20.2386C159.78 21.5559 159.203 22.618 158.048 23.4248C156.893 24.2317 155.323 24.6351 153.338 24.6351C151.373 24.6351 149.81 24.1458 148.649 23.1672C147.488 22.1886 146.908 20.6765 146.908 18.6309C146.908 16.8793 147.294 15.5172 148.066 14.5447C148.838 13.5721 150.059 12.8965 151.729 12.5179C152.381 12.3691 153.633 12.2034 155.485 12.0207C156.981 11.8719 157.975 11.7286 158.466 11.5907V14.229C157.965 14.4709 157.074 14.6427 155.792 14.7443L153.437 14.9148C152.981 14.9499 152.604 14.9929 152.307 15.0437C151.985 15.1032 151.669 15.1925 151.363 15.3104C151.061 15.4205 150.783 15.5894 150.546 15.8076C150.302 16.0508 150.1 16.3321 149.946 16.6404C149.746 17.0421 149.601 17.4695 149.517 17.9106C150.374 16.5207 151.872 15.8257 154.01 15.8257ZM151.077 21.5704C151.615 21.8958 152.364 22.0585 153.323 22.0585C154.282 22.0585 155.034 21.8958 155.579 21.5704C156.121 21.2438 156.392 20.7999 156.392 20.2386C156.392 19.6773 156.121 19.2309 155.579 18.8995C155.035 18.568 154.283 18.4017 153.323 18.4005C152.363 18.3993 151.614 18.5656 151.077 18.8995C150.541 19.2309 150.272 19.6773 150.272 20.2386C150.272 20.7999 150.541 21.2438 151.077 21.5704Z" fill="#002864"/>
<path d="M173.735 20.616V20.9426H164.657C165.045 21.8692 166.079 22.3331 167.76 22.3343C168.891 22.3343 169.708 22.1341 170.211 21.7337L173.572 21.8698C173.23 22.7625 172.566 23.4466 171.579 23.922C170.592 24.3974 169.318 24.6351 167.757 24.6351C165.709 24.6351 164.095 24.2486 162.912 23.4756C161.73 22.7027 161.139 21.5208 161.139 19.9301C161.139 18.3503 161.718 17.1709 162.878 16.3918C164.037 15.6128 165.612 15.2239 167.603 15.2251C169.638 15.2251 171.166 15.6539 172.188 16.5116C173.21 17.3692 173.725 18.7374 173.735 20.616ZM167.615 17.5313C166.014 17.5313 165.031 17.9946 164.666 18.9212H170.365C170.196 17.991 169.277 17.5259 167.606 17.5259L167.615 17.5313Z" fill="#002864"/>
<path d="M182.712 15.2251C184.265 15.2251 185.533 15.6485 186.516 16.4953C187.499 17.342 187.994 18.4912 188 19.9428C188 21.3944 187.508 22.5436 186.525 23.3904C185.542 24.2371 184.279 24.6605 182.735 24.6605C181.022 24.6605 179.724 24.1766 178.844 23.2089V27.8976H175.442V15.4302H178.614V16.9761C179.436 15.8076 180.802 15.2239 182.712 15.2251ZM179.496 21.4761C180.028 21.8644 180.752 22.0585 181.67 22.0585C182.588 22.0585 183.313 21.8644 183.844 21.4761C184.089 21.3006 184.289 21.0691 184.426 20.8009C184.564 20.5326 184.636 20.2354 184.636 19.9337C184.636 19.6321 184.564 19.3348 184.426 19.0666C184.289 18.7983 184.089 18.5669 183.844 18.3914C183.313 18.0031 182.588 17.8084 181.67 17.8071C180.752 17.8059 180.028 18.0007 179.496 18.3914C179.251 18.5669 179.052 18.7983 178.914 19.0666C178.776 19.3348 178.704 19.6321 178.704 19.9337C178.704 20.2354 178.776 20.5326 178.914 20.8009C179.052 21.0691 179.251 21.3006 179.496 21.4761Z" fill="#002864"/>
</svg>
